<svg xmlns="http://www.w3.org/2000/svg" viewBox="0 0 800 775.92"><title>NCC Developer Guide</title><path d="M517.89 241.08c51.76-29.34 91.43 13.79 150.1 32.79 86.26 27.59 110.39-69 70.72-94.89-100.05-63.83-129.39-84.54-229.44-165.63-34.5-29.34-113.88 19-72.47 86.26 29.34 48.3 93.17 81.09 81.09 141.47" fill="#7c2082"/><path d="M217.7 456.73c-58.64-6.91-67.26-65.55-101.77-113.85-53.5-72.46-129.39-8.62-113.93 34.51 43.13 110.39 55.21 143.18 88 267.41 12.08 44.84 103.51 51.72 110.39-25.88 3.51-56.96-27.53-120.77 17.31-162.19" fill="#7c2082"/><path d="M129.72 272.13c55.21-13.79 107-63.84 160.44-34.5-12.08-56.92 41.42-82.8 75.92-131.1 53.47-74.18-31-127.68-67.3-98.34-91.43 75.89-119 96.6-227.73 167.35-37.93 24.13-17.25 113.85 58.67 96.6" fill="#7c2082"/><path d="M548.94 662.04c-53.47-20.71-124.22-10.34-150.1-67.26-24.13 55.18-81.09 43.18-139.72 62.09-86.26 29.34-48.3 120.76-1.75 119 119.05-6.88 153.56-6.88 281.24-1.71 46.59 3.46 81.09-81.09 10.34-112.14" fill="#7c2082"/><path d="M693.84 339.42c-38 43.13-50 115.6-110.39 120.76 44.84 39.68 15.55 93.18 15.55 153.56 0 89.68 100.05 82.8 112.14 37.93 29.34-115.56 39.67-148.35 86.26-267.41 17.25-43.13-53.47-103.51-103.51-44.84" fill="#7c2082"/><path d="M404 353.18c-31 0-58.67 25.88-58.67 58.67s27.67 58.63 58.67 58.63a58.65 58.65 0 0 0 0-117.31" transform="translate(0 -12.04)" fill="#7c2082"/><path d="M404 137.53c-32.79 58.67-103.51 72.47-58.67 157 5.2 8.63-27.59 31.08-34.5 22.45-19-32.79-62.09-39.71-88-27.62-25.88 13.79-48.3 31-77.63 34.5 24.17 17.25 31 74.18 69 98.34 17.25 10.34 44.84 8.63 63.84 5.17 10.34-1.71 20.71 34.5 12.08 38-19 10.34-38 22.42-48.33 43.13-6.88 13.79-10.34 25.88-6.88 44.84 3.42 29.34 12 60.38 3.42 82.8 24.17-19 69-12 101.8-29.3 27.59-15.54 38-41.42 41.42-70.75 1.71-5.17 12.08-6.88 22.42-6.88v-19c-53.47 0-98.34-44.84-98.34-98.31 0-55.21 44.88-100.09 98.34-100.09zm176 153.55c-39.67-15.54-62.13 6.88-84.55 27.59-6.91 6.91-38-15.54-32.79-29.34 12.08-22.42 20.71-43.13 10.37-67.26-13.79-34.5-34.5-27.62-67.3-86.26a1.68 1.68 0 0 1-1.71 1.71v174.24a100.14 100.14 0 0 1 100.08 100.09c0 53.47-44.84 98.31-100.05 98.31v19c8.63 1.71 17.25 3.46 17.25 6.88 5.17 34.5 13.79 51.76 36.22 69 27.62 22.45 77.63 12.08 103.51 27.62-3.46-29.34 3.46-55.21 6.91-79.38 10.34-56.92-34.5-74.18-55.21-84.51-8.63-5.17 8.63-44.88 17.25-41.42 17.25 6.91 55.21 12.08 81.09-22.42 19-22.42 17.25-44.88 46.59-77.63-39.66-12.09-48.3-25.88-77.66-36.22" transform="translate(0 -12.04)" fill="#7c2082"/></svg>